<svg aria-hidden="true" style="position: absolute; width: 0; height: 0; overflow: hidden;" version="1.1" xmlns="http://www.w3.org/2000/svg" xmlns:xlink="http://www.w3.org/1999/xlink">
<defs>
<symbol id="icon-backward" viewBox="0 0 20 20">
<path d="M19 5v10l-9-5 9-5zM10 5v10l-9-5 9-5z"></path>
</symbol>
<symbol id="icon-backward-step" viewBox="0 0 20 20">
<path d="M4 5h3v10h-3v-10zM16 5v10l-9-5 9-5z"></path>
</symbol>
<symbol id="icon-close" viewBox="0 0 20 20">
<path d="M10 8.586l-7.071-7.071-1.414 1.414 7.071 7.071-7.071 7.071 1.414 1.414 7.071-7.071 7.071 7.071 1.414-1.414-7.071-7.071 7.071-7.071-1.414-1.414-7.071 7.071z"></path>
</symbol>
<symbol id="icon-download" viewBox="0 0 20 20">
<path d="M13 8v-6h-6v6h-5l8 8 8-8h-5zM0 18h20v2h-20v-2z"></path>
</symbol>
<symbol id="icon-fast-rewind" viewBox="0 0 20 20">
<path d="M19 5v10l-9-5 9-5zM10 5v10l-9-5 9-5z"></path>
</symbol>
<symbol id="icon-music-playlist" viewBox="0 0 20 20">
<path d="M16 17c0 1.657-1.343 3-3 3v0h-2c-1.657 0-3-1.343-3-3s1.343-3 3-3v0h2c0.001 0 0.003 0 0.004 0 0.357 0 0.699 0.062 1.016 0.177l-0.021-0.007v-13.17l6-1v4l-4 0.67v12.33zM0 3h12v2h-12v-2zM0 7h12v2h-12v-2zM0 11h12v2h-12v-2zM0 15h6v2h-6v-2z"></path>
</symbol>
<symbol id="icon-pause" viewBox="0 0 20 20">
<path d="M5 4h3v12h-3v-12zM12 4h3v12h-3v-12z"></path>
</symbol>
<symbol id="icon-play" viewBox="0 0 20 20">
<path d="M4 4l12 6-12 6z"></path>
</symbol>
<symbol id="icon-playlist" viewBox="0 0 20 20">
<path d="M16 17c0 1.657-1.343 3-3 3v0h-2c-1.657 0-3-1.343-3-3s1.343-3 3-3v0h2c0.001 0 0.003 0 0.004 0 0.357 0 0.699 0.062 1.016 0.177l-0.021-0.007v-13.17l6-1v4l-4 0.67v12.33zM0 3h12v2h-12v-2zM0 7h12v2h-12v-2zM0 11h12v2h-12v-2zM0 15h6v2h-6v-2z"></path>
</symbol>
<symbol id="icon-shuffle" viewBox="0 0 20 20">
<path d="M6.59 12.83l-2.19 2.17c-0.58 0.58-1.59 1-2.4 1h-2v-2h2c0.29 0 0.8-0.2 1-0.41l2.17-2.18 1.42 1.42zM16 4v-3l4 4-4 4v-3h-2c-0.29 0-0.8 0.2-1 0.41l-2.17 2.18-1.43-1.42 2.2-2.17c0.58-0.58 1.59-1 2.41-1h2zM16 14v-3l4 4-4 4v-3h-2c-0.82 0-1.83-0.42-2.41-1l-8.6-8.59c-0.19-0.2-0.69-0.41-0.99-0.41h-2v-2h2c0.82 0 1.83 0.42 2.41 1l8.6 8.59c0.2 0.2 0.7 0.41 0.99 0.41h2z"></path>
</symbol>
<symbol id="icon-step-backward" viewBox="0 0 20 20">
<path d="M4 5h3v10h-3v-10zM16 5v10l-9-5 9-5z"></path>
</symbol>
<symbol id="icon-controller-fast-backward" viewBox="0 0 20 20">
<path d="M17.959 4.571l-7.203 4.949c0 0-0.279 0.201-0.279 0.481s0.279 0.479 0.279 0.479l7.203 4.951c0.572 0.38 1.041 0.099 1.041-0.626v-9.609c0-0.727-0.469-1.008-1.041-0.625zM8.883 4.571l-7.203 4.949c0 0-0.279 0.201-0.279 0.481s0.279 0.479 0.279 0.479l7.203 4.951c0.572 0.381 1.041 0.1 1.041-0.625v-9.61c0-0.727-0.469-1.008-1.041-0.625z"></path>
</symbol>
<symbol id="icon-controller-fast-forward" viewBox="0 0 20 20">
<path d="M9.244 9.52l-7.203-4.949c-0.572-0.383-1.041-0.102-1.041 0.625v9.609c0 0.725 0.469 1.006 1.041 0.625l7.203-4.951c0 0 0.279-0.199 0.279-0.478s-0.279-0.481-0.279-0.481zM18.6 10.001c0 0.279-0.279 0.478-0.279 0.478l-7.203 4.951c-0.572 0.381-1.041 0.1-1.041-0.625v-9.609c0-0.727 0.469-1.008 1.041-0.625l7.202 4.949c0 0 0.28 0.201 0.28 0.481z"></path>
</symbol>
<symbol id="icon-controller-next" viewBox="0 0 20 20">
<path d="M12.244 9.52l-7.203-4.949c-0.572-0.383-1.041-0.102-1.041 0.625v9.609c0 0.725 0.469 1.006 1.041 0.625l7.203-4.951c0 0 0.279-0.199 0.279-0.478s-0.279-0.481-0.279-0.481zM14 4h1c0.553 0 1 0.048 1 0.6v10.8c0 0.552-0.447 0.6-1 0.6h-1c-0.553 0-1-0.048-1-0.6v-10.8c0-0.552 0.447-0.6 1-0.6z"></path>
</symbol>
<symbol id="icon-controller-play" viewBox="0 0 20 20">
<path d="M15 10.001c0 0.299-0.305 0.514-0.305 0.514l-8.561 5.303c-0.624 0.409-1.134 0.106-1.134-0.669v-10.297c0-0.777 0.51-1.078 1.135-0.67l8.561 5.305c-0.001 0 0.304 0.215 0.304 0.514z"></path>
</symbol>
<symbol id="icon-controller-record" viewBox="0 0 20 20">
<path d="M10 3c-3.866 0-7 3.133-7 7 0 3.865 3.134 7 7 7s7-3.135 7-7c0-3.867-3.134-7-7-7z"></path>
</symbol>
<symbol id="icon-controller-stop" viewBox="0 0 20 20">
<path d="M16 4.995v9.808c0 0.661-0.536 1.197-1.196 1.197h-9.807c-0.551 0-0.997-0.446-0.997-0.997v-9.807c0-0.66 0.536-1.196 1.196-1.196h9.808c0.55 0 0.996 0.446 0.996 0.995z"></path>
</symbol>
<symbol id="icon-save" viewBox="0 0 20 20">
<path d="M15.173 2h-11.173c-1.101 0-2 0.9-2 2v12c0 1.1 0.899 2 2 2h12c1.101 0 2-0.9 2-2v-10.873l-2.827-3.127zM14 8c0 0.549-0.45 1-1 1h-6c-0.55 0-1-0.451-1-1v-5h8v5zM13 4h-2v4h2v-4z"></path>
</symbol>
<symbol id="icon-triangle-right" viewBox="0 0 20 20">
<path d="M15 10l-9 5v-10l9 5z"></path>
</symbol>
<symbol id="icon-heart-outlined" viewBox="0 0 20 20">
<path d="M17.19 4.156c-1.672-1.535-4.383-1.535-6.055 0l-1.135 1.041-1.136-1.041c-1.672-1.535-4.382-1.535-6.054 0-1.881 1.726-1.881 4.519 0 6.245l7.19 6.599 7.19-6.599c1.88-1.726 1.88-4.52 0-6.245zM16.124 9.375l-6.124 5.715-6.125-5.715c-0.617-0.567-0.856-1.307-0.856-2.094s0.138-1.433 0.756-1.999c0.545-0.501 1.278-0.777 2.063-0.777s1.517 0.476 2.062 0.978l2.1 1.825 2.099-1.826c0.546-0.502 1.278-0.978 2.063-0.978s1.518 0.276 2.063 0.777c0.618 0.566 0.755 1.212 0.755 1.999s-0.238 1.528-0.856 2.095z"></path>
</symbol>
<symbol id="icon-heart" viewBox="0 0 20 20">
<path d="M17.19 4.155c-1.672-1.534-4.383-1.534-6.055 0l-1.135 1.042-1.136-1.042c-1.672-1.534-4.382-1.534-6.054 0-1.881 1.727-1.881 4.52 0 6.246l7.19 6.599 7.19-6.599c1.88-1.726 1.88-4.52 0-6.246z"></path>
</symbol>
<symbol id="icon-shuffle1" viewBox="0 0 20 20">
<path d="M15.093 6.694h0.92v2.862l3.987-4.024-3.988-4.025v2.387h-0.92c-3.694 0-5.776 2.738-7.614 5.152-1.652 2.172-3.080 4.049-5.386 4.049h-2.092v2.799h2.093c3.694 0 5.776-2.736 7.614-5.152 1.652-2.173 3.080-4.048 5.386-4.048zM5.41 8.458c0.158-0.203 0.316-0.412 0.477-0.623 0.39-0.514 0.804-1.055 1.252-1.596-1.322-1.234-2.915-2.144-5.046-2.144h-2.093v2.799h2.093c1.327 0 2.362 0.623 3.317 1.564zM16.012 13.294h-0.92c-1.407 0-2.487-0.701-3.491-1.738-0.1 0.131-0.201 0.264-0.303 0.397-0.441 0.58-0.915 1.201-1.439 1.818 1.356 1.324 3 2.324 5.232 2.324h0.92v2.398l3.989-4.025-3.988-4.025v2.851z"></path>
</symbol>
<symbol id="icon-star-outlined" viewBox="0 0 20 20">
<path d="M18.8 8.022h-6.413l-2.387-6.722-2.389 6.722h-6.412l5.232 3.947-1.871 6.929 5.44-4.154 5.438 4.154-1.869-6.929 5.231-3.947zM10 12.783l-3.014 2.5 1.243-3.562-2.851-2.3 3.522 0.101 1.1-4.040 1.099 4.040 3.521-0.101-2.851 2.3 1.243 3.562-3.012-2.5z"></path>
</symbol>
<symbol id="icon-star" viewBox="0 0 20 20">
<path d="M10 1.3l2.388 6.722h6.412l-5.232 3.948 1.871 6.928-5.439-4.154-5.438 4.154 1.87-6.928-5.233-3.948h6.412l2.389-6.722z"></path>
</symbol>
<symbol id="icon-fast_forward" viewBox="0 0 24 24">
<path d="M12.984 6l8.531 6-8.531 6v-12zM3.984 18v-12l8.531 6z"></path>
</symbol>
<symbol id="icon-fast_rewind" viewBox="0 0 24 24">
<path d="M11.484 12l8.531-6v12zM11.016 18l-8.531-6 8.531-6v12z"></path>
</symbol>
<symbol id="icon-hearing" viewBox="0 0 24 24">
<path d="M11.484 9q0-1.031 0.75-1.758t1.781-0.727 1.758 0.727 0.727 1.758-0.727 1.758-1.758 0.727-1.781-0.727-0.75-1.758zM7.641 2.625q-2.625 2.625-2.625 6.375t2.625 6.375l-1.406 1.406q-3.234-3.234-3.234-7.781t3.234-7.781zM17.016 20.016q0.797 0 1.383-0.609t0.586-1.406h2.016q0 1.641-1.172 2.813t-2.813 1.172q-0.891 0-1.641-0.328-1.922-0.984-2.766-3.563-0.328-1.031-1.688-2.063-1.922-1.406-2.859-3.141-1.078-1.922-1.078-3.891 0-2.953 2.039-4.969t4.992-2.016 4.969 2.016 2.016 4.969h-2.016q0-2.109-1.43-3.563t-3.539-1.453-3.563 1.453-1.453 3.563q0 1.5 0.797 2.953 0.656 1.266 2.344 2.531 1.875 1.406 2.391 3 0.609 1.781 1.688 2.344 0.375 0.188 0.797 0.188z"></path>
</symbol>
<symbol id="icon-loop" viewBox="0 0 24 24">
<path d="M12 18v-3l3.984 3.984-3.984 4.031v-3q-3.281 0-5.648-2.367t-2.367-5.648q0-2.344 1.266-4.266l1.453 1.453q-0.703 1.266-0.703 2.813 0 2.484 1.758 4.242t4.242 1.758zM12 3.984q3.281 0 5.648 2.367t2.367 5.648q0 2.344-1.266 4.266l-1.453-1.453q0.703-1.266 0.703-2.813 0-2.484-1.758-4.242t-4.242-1.758v3l-3.984-3.984 3.984-4.031v3z"></path>
</symbol>
<symbol id="icon-mic" viewBox="0 0 24 24">
<path d="M17.297 11.016h1.688q0 2.531-1.758 4.43t-4.242 2.273v3.281h-1.969v-3.281q-2.484-0.375-4.242-2.273t-1.758-4.43h1.688q0 2.203 1.57 3.633t3.727 1.43 3.727-1.43 1.57-3.633zM12 14.016q-1.219 0-2.109-0.891t-0.891-2.109v-6q0-1.219 0.891-2.109t2.109-0.891 2.109 0.891 0.891 2.109v6q0 1.219-0.891 2.109t-2.109 0.891z"></path>
</symbol>
<symbol id="icon-mic_none" viewBox="0 0 24 24">
<path d="M17.297 11.016h1.688q0 2.531-1.758 4.43t-4.242 2.273v3.281h-1.969v-3.281q-2.484-0.375-4.242-2.273t-1.758-4.43h1.688q0 2.203 1.57 3.633t3.727 1.43 3.727-1.43 1.57-3.633zM10.781 4.922v6.188q0 0.469 0.352 0.82t0.867 0.352q0.469 0 0.82-0.328t0.352-0.844l0.047-6.188q0-0.516-0.375-0.867t-0.844-0.352-0.844 0.352-0.375 0.867zM12 14.016q-1.219 0-2.109-0.891t-0.891-2.109v-6q0-1.219 0.891-2.109t2.109-0.891 2.109 0.891 0.891 2.109v6q0 1.219-0.891 2.109t-2.109 0.891z"></path>
</symbol>
<symbol id="icon-mic_off" viewBox="0 0 24 24">
<path d="M4.266 3l16.734 16.734-1.266 1.266-4.172-4.172q-1.031 0.656-2.578 0.891v3.281h-1.969v-3.281q-2.484-0.375-4.242-2.273t-1.758-4.43h1.688q0 2.203 1.57 3.633t3.727 1.43q1.172 0 2.297-0.516l-1.641-1.641q-0.375 0.094-0.656 0.094-1.219 0-2.109-0.891t-0.891-2.109v-0.75l-6-6zM15 11.156l-6-5.953v-0.188q0-1.219 0.891-2.109t2.109-0.891 2.109 0.891 0.891 2.109v6.141zM18.984 11.016q0 1.734-0.891 3.281l-1.219-1.266q0.422-0.938 0.422-2.016h1.688z"></path>
</symbol>
<symbol id="icon-library_music" viewBox="0 0 24 24">
<path d="M3.984 6v14.016h14.016v1.969h-14.016q-0.797 0-1.383-0.586t-0.586-1.383v-14.016h1.969zM18 6.984v-1.969h-3.984v5.484q-0.656-0.516-1.5-0.516-1.031 0-1.781 0.75t-0.75 1.781 0.75 1.758 1.781 0.727 1.758-0.727 0.727-1.758v-5.531h3zM20.016 2.016q0.797 0 1.383 0.586t0.586 1.383v12q0 0.797-0.586 1.406t-1.383 0.609h-12q-0.797 0-1.406-0.609t-0.609-1.406v-12q0-0.797 0.609-1.383t1.406-0.586h12z"></path>
</symbol>
<symbol id="icon-pause1" viewBox="0 0 24 24">
<path d="M14.016 5.016h3.984v13.969h-3.984v-13.969zM6 18.984v-13.969h3.984v13.969h-3.984z"></path>
</symbol>
<symbol id="icon-play_arrow" viewBox="0 0 24 24">
<path d="M8.016 5.016l10.969 6.984-10.969 6.984v-13.969z"></path>
</symbol>
<symbol id="icon-play_circle_filled" viewBox="0 0 24 24">
<path d="M9.984 16.5l6-4.5-6-4.5v9zM12 2.016q4.125 0 7.055 2.93t2.93 7.055-2.93 7.055-7.055 2.93-7.055-2.93-2.93-7.055 2.93-7.055 7.055-2.93z"></path>
</symbol>
<symbol id="icon-play_circle_outline" viewBox="0 0 24 24">
<path d="M12 20.016q3.281 0 5.648-2.367t2.367-5.648-2.367-5.648-5.648-2.367-5.648 2.367-2.367 5.648 2.367 5.648 5.648 2.367zM12 2.016q4.125 0 7.055 2.93t2.93 7.055-2.93 7.055-7.055 2.93-7.055-2.93-2.93-7.055 2.93-7.055 7.055-2.93zM9.984 16.5v-9l6 4.5z"></path>
</symbol>
<symbol id="icon-playlist_add" viewBox="0 0 24 24">
<path d="M2.016 15.984v-1.969h7.969v1.969h-7.969zM18 14.016h3.984v1.969h-3.984v4.031h-2.016v-4.031h-3.984v-1.969h3.984v-4.031h2.016v4.031zM14.016 6v2.016h-12v-2.016h12zM14.016 9.984v2.016h-12v-2.016h12z"></path>
</symbol>
<symbol id="icon-queue_music" viewBox="0 0 24 24">
<path d="M17.016 6h4.969v2.016h-3v9q0 1.219-0.891 2.109t-2.109 0.891-2.109-0.891-0.891-2.109 0.891-2.109 2.109-0.891q0.375 0 1.031 0.188v-8.203zM3 15.984v-1.969h8.016v1.969h-8.016zM15 9.984v2.016h-12v-2.016h12zM15 6v2.016h-12v-2.016h12z"></path>
</symbol>
<symbol id="icon-repeat" viewBox="0 0 24 24">
<path d="M17.016 17.016v-4.031h1.969v6h-12v3l-3.984-3.984 3.984-3.984v3h10.031zM6.984 6.984v4.031h-1.969v-6h12v-3l3.984 3.984-3.984 3.984v-3h-10.031z"></path>
</symbol>
<symbol id="icon-repeat_one" viewBox="0 0 24 24">
<path d="M12.984 15h-1.5v-3.984h-1.5v-1.031l2.016-0.984h0.984v6zM17.016 17.016v-4.031h1.969v6h-12v3l-3.984-3.984 3.984-3.984v3h10.031zM6.984 6.984v4.031h-1.969v-6h12v-3l3.984 3.984-3.984 3.984v-3h-10.031z"></path>
</symbol>
<symbol id="icon-replay" viewBox="0 0 24 24">
<path d="M12 5.016q3.328 0 5.672 2.344t2.344 5.625q0 3.328-2.367 5.672t-5.648 2.344-5.648-2.344-2.367-5.672h2.016q0 2.484 1.758 4.242t4.242 1.758 4.242-1.758 1.758-4.242-1.758-4.242-4.242-1.758v4.031l-5.016-5.016 5.016-5.016v4.031z"></path>
</symbol>
<symbol id="icon-shuffle2" viewBox="0 0 24 24">
<path d="M14.813 13.406l3.141 3.141 2.063-2.063v5.531h-5.531l2.063-2.063-3.141-3.141zM14.484 3.984h5.531v5.531l-2.063-2.063-12.563 12.563-1.406-1.406 12.563-12.563zM10.594 9.188l-1.406 1.406-5.203-5.203 1.406-1.406z"></path>
</symbol>
<symbol id="icon-skip_next" viewBox="0 0 24 24">
<path d="M15.984 6h2.016v12h-2.016v-12zM6 18v-12l8.484 6z"></path>
</symbol>
<symbol id="icon-skip_previous" viewBox="0 0 24 24">
<path d="M9.516 12l8.484-6v12zM6 6h2.016v12h-2.016v-12z"></path>
</symbol>
<symbol id="icon-stop" viewBox="0 0 24 24">
<path d="M6 6h12v12h-12v-12z"></path>
</symbol>
<symbol id="icon-video_library" viewBox="0 0 24 24">
<path d="M12 14.484l6-4.5-6-4.5v9zM20.016 2.016q0.797 0 1.383 0.586t0.586 1.383v12q0 0.797-0.586 1.406t-1.383 0.609h-12q-0.797 0-1.406-0.609t-0.609-1.406v-12q0-0.797 0.609-1.383t1.406-0.586h12zM3.984 6v14.016h14.016v1.969h-14.016q-0.797 0-1.383-0.586t-0.586-1.383v-14.016h1.969z"></path>
</symbol>
<symbol id="icon-videocam" viewBox="0 0 24 24">
<path d="M17.016 10.5l3.984-3.984v10.969l-3.984-3.984v3.516q0 0.422-0.305 0.703t-0.727 0.281h-12q-0.422 0-0.703-0.281t-0.281-0.703v-10.031q0-0.422 0.281-0.703t0.703-0.281h12q0.422 0 0.727 0.281t0.305 0.703v3.516z"></path>
</symbol>
<symbol id="icon-videocam_off" viewBox="0 0 24 24">
<path d="M3.281 2.016l17.719 17.719-1.266 1.266-3.188-3.188q-0.281 0.188-0.563 0.188h-12q-0.422 0-0.703-0.281t-0.281-0.703v-10.031q0-0.422 0.281-0.703t0.703-0.281h0.75l-2.719-2.719zM21 6.516v10.688l-11.203-11.203h6.188q0.422 0 0.727 0.281t0.305 0.703v3.516z"></path>
</symbol>
<symbol id="icon-volume_down" viewBox="0 0 24 24">
<path d="M5.016 9h3.984l5.016-5.016v16.031l-5.016-5.016h-3.984v-6zM18.516 12q0 2.766-2.531 4.031v-8.063q1.031 0.516 1.781 1.711t0.75 2.32z"></path>
</symbol>
<symbol id="icon-volume_mute" viewBox="0 0 24 24">
<path d="M6.984 9h4.031l4.969-5.016v16.031l-4.969-5.016h-4.031v-6z"></path>
</symbol>
<symbol id="icon-volume_off" viewBox="0 0 24 24">
<path d="M12 3.984v4.219l-2.109-2.109zM4.266 3l16.734 16.734-1.266 1.266-2.063-2.063q-1.547 1.313-3.656 1.828v-2.063q1.172-0.328 2.25-1.172l-4.266-4.266v6.75l-5.016-5.016h-3.984v-6h4.734l-4.734-4.734zM18.984 12q0-2.391-1.383-4.219t-3.586-2.484v-2.063q3.047 0.656 5.016 3.117t1.969 5.648q0 2.203-1.031 4.172l-1.5-1.547q0.516-1.266 0.516-2.625zM16.5 12q0 0.422-0.047 0.609l-2.438-2.438v-2.203q1.031 0.516 1.758 1.688t0.727 2.344z"></path>
</symbol>
<symbol id="icon-volume_up" viewBox="0 0 24 24">
<path d="M14.016 3.234q3.047 0.656 5.016 3.117t1.969 5.648-1.969 5.648-5.016 3.117v-2.063q2.203-0.656 3.586-2.484t1.383-4.219-1.383-4.219-3.586-2.484v-2.063zM16.5 12q0 2.813-2.484 4.031v-8.063q1.031 0.516 1.758 1.688t0.727 2.344zM3 9h3.984l5.016-5.016v16.031l-5.016-5.016h-3.984v-6z"></path>
</symbol>
<symbol id="icon-forward_10" viewBox="0 0 24 24">
<path d="M13.219 15.188q0 0.328 0.469 0.328 0.234 0 0.328-0.094l0.188-0.234q0.094-0.188 0.094-0.281v-2.016q-0.094-0.188-0.094-0.281t-0.211-0.211-0.305-0.117q-0.141 0-0.281 0.141l-0.188 0.188q-0.141 0.188-0.141 0.281v2.016q0.141 0.188 0.141 0.281zM15.094 14.203q0 0.609-0.094 0.797l-0.281 0.609q-0.328 0.281-0.516 0.281-0.094 0-0.305 0.047t-0.305 0.047q-0.422 0-0.609-0.094-0.094-0.047-0.234-0.141t-0.234-0.141q-0.422-0.234-0.422-1.406v-0.703q0-0.609 0.094-0.797l0.328-0.609q0.281-0.281 0.469-0.281 0.094 0 0.305-0.047t0.305-0.047q0.422 0 0.609 0.094 0.094 0.047 0.258 0.141t0.258 0.141 0.281 0.609q0.094 0.281 0.094 0.797v0.703zM10.922 15.984h-0.938v-3.281l-0.984 0.281v-0.703l1.781-0.563h0.141v4.266zM3.984 12.984q0-3.281 2.344-5.625t5.672-2.344v-4.031l5.016 5.016-5.016 5.016v-4.031q-2.438 0-4.219 1.758t-1.781 4.242 1.781 4.242 4.219 1.758 4.219-1.758 1.781-4.242h2.016q0 3.328-2.367 5.672t-5.648 2.344-5.648-2.344-2.367-5.672z"></path>
</symbol>
<symbol id="icon-forward_30" viewBox="0 0 24 24">
<path d="M3.984 12.984q0-3.281 2.344-5.625t5.672-2.344v-4.031l5.016 5.016-5.016 5.016v-4.031q-2.438 0-4.219 1.758t-1.781 4.242 1.781 4.242 4.219 1.758 4.219-1.758 1.781-4.242h2.016q0 3.328-2.367 5.672t-5.648 2.344-5.648-2.344-2.367-5.672zM13.313 15.188q0 0.328 0.469 0.328 0.234 0 0.328-0.094l0.188-0.234q0.094-0.188 0.094-0.281v-2.016q-0.094-0.188-0.094-0.281t-0.211-0.211-0.305-0.117q-0.141 0-0.281 0.141l-0.188 0.188q-0.094 0.188-0.094 0.281v2.016q0.094 0.188 0.094 0.281zM15.281 14.203q0 0.609-0.094 0.797l-0.281 0.609q-0.328 0.281-0.516 0.281-0.094 0-0.305 0.047t-0.305 0.047q-0.328 0-1.078-0.375-0.094-0.047-0.281-0.609-0.141-0.422-0.141-0.797v-0.703q0-0.516 0.141-0.797l0.281-0.609q0.328-0.281 0.516-0.281 0.094 0 0.281-0.047t0.281-0.047q0.422 0 0.609 0.094 0.094 0.047 0.258 0.141t0.258 0.141 0.281 0.609q0.094 0.281 0.094 0.797v0.703zM9.984 13.5q0.703 0 0.703-0.609v-0.188q-0.094-0.094-0.094-0.188t-0.188-0.094h-0.516q-0.094 0.094-0.188 0.094t-0.094 0.188v0.188h-1.031q0-0.375 0.258-0.727t0.586-0.352q0.047 0 0.234-0.047t0.234-0.047q0.563 0 1.125 0.281 0.375 0.188 0.375 0.891v0.328q-0.094 0.188-0.094 0.281 0 0.188-0.188 0.188-0.094 0-0.328 0.234 0.422 0.234 0.516 0.375 0.188 0.375 0.188 0.609 0 0.422-0.094 0.516-0.047 0.047-0.141 0.188t-0.141 0.188q-0.188 0.188-0.516 0.188-0.094 0-0.305 0.047t-0.305 0.047q-0.375 0-0.469-0.094-0.047-0.047-0.234-0.094t-0.281-0.094q-0.422-0.234-0.422-0.984h0.844v0.188q0.094 0.094 0.094 0.188t0.188 0.094h0.516q0.094-0.094 0.188-0.094t0.094-0.188v-0.516q-0.094-0.094-0.094-0.188t-0.188-0.094h-0.609v-0.703h0.375z"></path>
</symbol>
<symbol id="icon-forward_5" viewBox="0 0 24 24">
<path d="M11.719 13.594q-0.328 0.141-0.328 0.188l-0.094 0.141h-0.609l0.234-2.203h2.391v0.703h-1.734l-0.094 0.891q0.094 0 0.094-0.094 0-0.047 0.070-0.070t0.070-0.070h0.375q0.375 0 0.516 0.141 0.047 0.047 0.188 0.141t0.188 0.141q0.422 0.422 0.422 1.078 0 0.422-0.094 0.516-0.047 0.047-0.141 0.234t-0.188 0.281q-0.375 0.375-1.078 0.375-0.422 0-0.516-0.094-0.047-0.047-0.211-0.094t-0.258-0.094q-0.422-0.234-0.422-0.891h0.797q0 0.469 0.609 0.469 0.188 0 0.281-0.094l0.234-0.188q0.094-0.188 0.094-0.281v-0.609l-0.094-0.188-0.234-0.234q-0.188-0.094-0.281-0.094h-0.188zM3.984 12.984q0-3.281 2.344-5.625t5.672-2.344v-4.031l5.016 5.016-5.016 5.016v-4.031q-2.438 0-4.219 1.758t-1.781 4.242 1.781 4.242 4.219 1.758 4.219-1.758 1.781-4.242h2.016q0 3.328-2.367 5.672t-5.648 2.344-5.648-2.344-2.367-5.672z"></path>
</symbol>
<symbol id="icon-replay_10" viewBox="0 0 24 24">
<path d="M13.219 15.188q0 0.328 0.469 0.328 0.234 0 0.328-0.094l0.188-0.234q0.094-0.188 0.094-0.281v-2.016q-0.094-0.188-0.094-0.281t-0.211-0.211-0.305-0.117q-0.141 0-0.281 0.141l-0.188 0.188q-0.141 0.188-0.141 0.281v2.016q0.141 0.188 0.141 0.281zM15.188 14.203q0 0.609-0.094 0.797l-0.281 0.609q-0.328 0.281-0.516 0.281-0.094 0-0.305 0.047t-0.305 0.047q-0.422 0-0.609-0.094-0.094-0.047-0.234-0.141t-0.234-0.141q-0.422-0.234-0.422-1.406v-0.703q0-0.609 0.094-0.797l0.328-0.609q0.281-0.281 0.469-0.281 0.094 0 0.305-0.047t0.305-0.047q0.422 0 0.609 0.094 0.094 0.047 0.258 0.141t0.258 0.141 0.281 0.609q0.094 0.281 0.094 0.797v0.703zM10.922 15.984h-0.938v-3.281l-0.984 0.281v-0.703l1.781-0.563h0.141v4.266zM12 5.016q3.328 0 5.672 2.344t2.344 5.625q0 3.328-2.367 5.672t-5.648 2.344-5.648-2.344-2.367-5.672h2.016q0 2.484 1.781 4.242t4.219 1.758 4.219-1.758 1.781-4.242-1.781-4.242-4.219-1.758v4.031l-5.016-5.016 5.016-5.016v4.031z"></path>
</symbol>
<symbol id="icon-replay_30" viewBox="0 0 24 24">
<path d="M13.406 15.188q0 0.328 0.516 0.328 0.188 0 0.281-0.094l0.188-0.234q0.094-0.188 0.094-0.281v-2.016q0-0.047-0.047-0.141t-0.047-0.141q0-0.094-0.188-0.211t-0.281-0.117q-0.188 0-0.328 0.141l-0.188 0.188q-0.094 0.188-0.094 0.281v2.016q0.094 0.188 0.094 0.281zM15.281 14.203q0 0.609-0.094 0.797l-0.281 0.609q-0.328 0.281-0.516 0.281-0.094 0-0.305 0.047t-0.305 0.047q-0.328 0-1.078-0.375-0.094-0.047-0.281-0.609-0.141-0.422-0.141-0.797v-0.703q0-0.516 0.141-0.797l0.281-0.609q0.328-0.281 0.516-0.281 0.094 0 0.281-0.047t0.281-0.047q0.422 0 0.609 0.094 0.094 0.047 0.258 0.141t0.258 0.141 0.281 0.609q0.094 0.281 0.094 0.797v0.703zM9.984 13.5q0.703 0 0.703-0.609v-0.188q-0.094-0.094-0.094-0.188t-0.188-0.094h-0.516q-0.094 0.094-0.188 0.094t-0.094 0.188v0.188h-1.031q0-0.375 0.258-0.727t0.586-0.352q0.047 0 0.234-0.047t0.234-0.047q0.563 0 1.125 0.281 0.375 0.188 0.375 0.891v0.328q-0.094 0.188-0.094 0.281 0 0.188-0.188 0.188-0.094 0-0.328 0.234 0.422 0.234 0.516 0.375 0.188 0.375 0.188 0.609 0 0.422-0.094 0.516-0.047 0.047-0.141 0.188t-0.141 0.188q-0.188 0.188-0.516 0.188-0.094 0-0.305 0.047t-0.305 0.047q-0.375 0-0.469-0.094-0.047-0.047-0.234-0.094t-0.281-0.094q-0.422-0.234-0.422-0.984h0.844v0.188q0.094 0.094 0.094 0.188t0.188 0.094h0.516q0.094-0.094 0.188-0.094t0.094-0.188v-0.516q-0.094-0.094-0.094-0.188t-0.188-0.094h-0.609v-0.703h0.375zM12 5.016q3.328 0 5.672 2.344t2.344 5.625q0 3.328-2.367 5.672t-5.648 2.344-5.648-2.344-2.367-5.672h2.016q0 2.484 1.781 4.242t4.219 1.758 4.219-1.758 1.781-4.242-1.781-4.242-4.219-1.758v4.031l-5.016-5.016 5.016-5.016v4.031z"></path>
</symbol>
<symbol id="icon-replay_5" viewBox="0 0 24 24">
<path d="M11.813 13.594q-0.328 0.141-0.328 0.188l-0.094 0.141h-0.703l0.234-2.203h2.391v0.703h-1.734l-0.094 0.891q0.094 0 0.094-0.094 0-0.047 0.070-0.070t0.070-0.070h0.375q0.375 0 0.516 0.141 0.047 0.047 0.188 0.141t0.188 0.141q0.422 0.422 0.422 1.078 0 0.422-0.094 0.516-0.047 0.047-0.141 0.234t-0.188 0.281-0.211 0.164-0.164 0.117q-0.094 0.094-0.609 0.094-0.422 0-0.516-0.094-0.047-0.047-0.211-0.094t-0.258-0.094q-0.422-0.234-0.422-0.891h0.797q0 0.469 0.609 0.469 0.188 0 0.281-0.094l0.234-0.188q0.094-0.188 0.094-0.281v-0.609l-0.094-0.188-0.234-0.234q-0.188-0.094-0.281-0.094h-0.188zM12 5.016q3.328 0 5.672 2.344t2.344 5.625q0 3.328-2.367 5.672t-5.648 2.344-5.648-2.344-2.367-5.672h2.016q0 2.484 1.781 4.242t4.219 1.758 4.219-1.758 1.781-4.242-1.781-4.242-4.219-1.758v4.031l-5.016-5.016 5.016-5.016v4.031z"></path>
</symbol>
<symbol id="icon-playlist_play" viewBox="0 0 24 24">
<path d="M14.016 14.016l4.969 3-4.969 3v-6zM3.984 14.016h8.016v1.969h-8.016v-1.969zM3.984 6h12v2.016h-12v-2.016zM3.984 9.984h12v2.016h-12v-2.016z"></path>
</symbol>
<symbol id="icon-fiber_manual_record" viewBox="0 0 24 24">
<path d="M3.984 12q0-3.281 2.367-5.648t5.648-2.367 5.648 2.367 2.367 5.648-2.367 5.648-5.648 2.367-5.648-2.367-2.367-5.648z"></path>
</symbol>
<symbol id="icon-fiber_smart_record" viewBox="0 0 24 24">
<path d="M17.016 4.266q2.625 0.656 4.313 2.813t1.688 4.922-1.688 4.922-4.313 2.813v-2.063q1.641-0.609 2.813-2.273t1.172-3.398-1.172-3.398-2.813-2.273v-2.063zM0.984 12q0-3.281 2.367-5.648t5.648-2.367 5.648 2.367 2.367 5.648-2.367 5.648-5.648 2.367-5.648-2.367-2.367-5.648z"></path>
</symbol>
<symbol id="icon-music_video" viewBox="0 0 24 24">
<path d="M8.016 15q0-1.219 0.891-2.109t2.109-0.891q0.328 0 0.984 0.188v-6.188h5.016v2.016h-3v7.031q0 1.219-0.891 2.086t-2.109 0.867-2.109-0.891-0.891-2.109zM21 18.984v-13.969h-18v13.969h18zM21 3q0.797 0 1.406 0.609t0.609 1.406v13.969q0 0.797-0.609 1.406t-1.406 0.609h-18q-0.797 0-1.406-0.609t-0.609-1.406v-13.969q0-0.797 0.609-1.406t1.406-0.609h18z"></path>
</symbol>
<symbol id="icon-subscriptions" viewBox="0 0 24 24">
<path d="M15.984 15.984l-6-3.234v6.516zM21.984 12v8.016q0 0.797-0.586 1.383t-1.383 0.586h-16.031q-0.797 0-1.383-0.586t-0.586-1.383v-8.016q0-0.797 0.586-1.406t1.383-0.609h16.031q0.797 0 1.383 0.609t0.586 1.406zM18 2.016v1.969h-12v-1.969h12zM20.016 8.016h-16.031v-2.016h16.031v2.016z"></path>
</symbol>
<symbol id="icon-playlist_add_check" viewBox="0 0 24 24">
<path d="M21.516 11.484l1.5 1.5-6.984 7.031-4.547-4.5 1.5-1.5 3.047 3zM2.016 15.984v-1.969h7.969v1.969h-7.969zM14.016 6v2.016h-12v-2.016h12zM14.016 9.984v2.016h-12v-2.016h12z"></path>
</symbol>
<symbol id="icon-lightbulb" viewBox="0 0 24 24">
<path d="M12 2.016q2.906 0 4.945 2.039t2.039 4.945q0 3.516-3 5.719v2.297q0 0.422-0.281 0.703t-0.703 0.281h-6q-0.422 0-0.703-0.281t-0.281-0.703v-2.297q-3-2.063-3-5.719 0-2.906 2.039-4.945t4.945-2.039zM9 21v-0.984h6v0.984q0 0.422-0.281 0.703t-0.703 0.281h-4.031q-0.422 0-0.703-0.281t-0.281-0.703z"></path>
</symbol>
<symbol id="icon-add" viewBox="0 0 24 24">
<path d="M18.984 12.984h-6v6h-1.969v-6h-6v-1.969h6v-6h1.969v6h6v1.969z"></path>
</symbol>
<symbol id="icon-clear" viewBox="0 0 24 24">
<path d="M18.984 6.422l-5.578 5.578 5.578 5.578-1.406 1.406-5.578-5.578-5.578 5.578-1.406-1.406 5.578-5.578-5.578-5.578 1.406-1.406 5.578 5.578 5.578-5.578z"></path>
</symbol>
<symbol id="icon-gesture" viewBox="0 0 24 24">
<path d="M13.875 18.563q0.656 0 1.313-0.867t0.844-2.648q-1.406 0.375-2.156 1.266t-0.75 1.5q0 0.328 0.234 0.539t0.516 0.211zM4.594 6.891l-1.734-1.688q0.469-0.563 0.844-0.938 1.266-1.266 2.719-1.266 0.891 0 1.711 0.703t0.82 2.156q0 1.406-1.313 3.281-1.313 1.828-1.828 3.516-0.281 0.797-0.164 1.359t0.492 0.563q0.422 0 1.125-0.844 1.031-1.031 2.297-2.719 2.25-2.813 4.922-2.813 1.969 0 2.93 1.289t1.102 2.883h2.484v2.484h-2.438q-0.281 3.234-1.734 4.688t-3 1.453q-1.313 0-2.25-0.914t-0.938-2.18q0-1.547 1.406-3.234t3.984-2.156q-0.047-0.375-0.070-0.516t-0.141-0.445-0.281-0.445-0.492-0.258-0.797-0.117q-1.313 0-4.078 3.422-0.797 0.984-1.102 1.336t-0.867 0.82-1.078 0.609q-1.641 0.516-2.813-0.609t-1.172-2.813q0-0.703 0.258-1.547t0.68-1.641 0.797-1.43 0.727-1.148 0.398-0.563q0.797-1.313 0.281-1.5-0.328-0.141-1.688 1.219z"></path>
</symbol>
<symbol id="icon-remove" viewBox="0 0 24 24">
<path d="M18.984 12.984h-13.969v-1.969h13.969v1.969z"></path>
</symbol>
<symbol id="icon-reply" viewBox="0 0 24 24">
<path d="M9.984 9q4.875 0.703 7.523 3.727t3.492 7.289q-3.609-5.109-11.016-5.109v4.078l-6.984-6.984 6.984-6.984v3.984z"></path>
</symbol>
<symbol id="icon-reply_all" viewBox="0 0 24 24">
<path d="M12.984 9q4.875 0.703 7.523 3.727t3.492 7.289q-3.609-5.109-11.016-5.109v4.078l-6.984-6.984 6.984-6.984v3.984zM6.984 8.016l-3.984 3.984 3.984 3.984v3l-6.984-6.984 6.984-6.984v3z"></path>
</symbol>
<symbol id="icon-save_alt" viewBox="0 0 24 24">
<path d="M12.984 12.656l2.625-2.578 1.406 1.406-5.016 5.016-5.016-5.016 1.406-1.406 2.625 2.578v-9.656h1.969v9.656zM18.984 12h2.016v6.984q0 0.797-0.609 1.406t-1.406 0.609h-13.969q-0.797 0-1.406-0.609t-0.609-1.406v-6.984h2.016v6.984h13.969v-6.984z"></path>
</symbol>
<symbol id="icon-cloud_done" viewBox="0 0 24 24">
<path d="M9.984 17.016l6.609-6.609-1.406-1.406-5.203 5.156-2.063-2.063-1.406 1.406zM19.359 10.031q1.922 0.141 3.281 1.57t1.359 3.398q0 2.063-1.477 3.539t-3.539 1.477h-12.984q-2.484 0-4.242-1.758t-1.758-4.242q0-2.203 1.57-3.961t3.773-1.992q0.984-1.828 2.766-2.953t3.891-1.125q2.531 0 4.711 1.781t2.648 4.266z"></path>
</symbol>
<symbol id="icon-cloud_download" viewBox="0 0 24 24">
<path d="M17.016 12.984h-3v-3.984h-4.031v3.984h-3l5.016 5.016zM19.359 10.031q1.922 0.141 3.281 1.57t1.359 3.398q0 2.063-1.477 3.539t-3.539 1.477h-12.984q-2.484 0-4.242-1.758t-1.758-4.242q0-2.203 1.57-3.961t3.773-1.992q0.984-1.828 2.766-2.953t3.891-1.125q2.531 0 4.711 1.781t2.648 4.266z"></path>
</symbol>
<symbol id="icon-cloud_off" viewBox="0 0 24 24">
<path d="M7.734 9.984h-1.734q-1.641 0-2.813 1.195t-1.172 2.836 1.172 2.813 2.813 1.172h9.75zM3 5.25l1.266-1.266 16.734 16.734-1.266 1.266-2.016-1.969h-11.719q-2.484 0-4.242-1.758t-1.758-4.242q0-2.438 1.688-4.172t4.078-1.828zM19.359 10.031q1.922 0.141 3.281 1.57t1.359 3.398q0 2.578-2.109 4.078l-1.453-1.453q1.547-0.844 1.547-2.625 0-1.219-0.891-2.109t-2.109-0.891h-1.5v-0.516q0-2.297-1.594-3.891t-3.891-1.594q-1.313 0-2.531 0.609l-1.5-1.453q1.828-1.172 4.031-1.172 2.531 0 4.711 1.781t2.648 4.266z"></path>
</symbol>
<symbol id="icon-cloud_upload" viewBox="0 0 24 24">
<path d="M14.016 12.984h3l-5.016-4.969-5.016 4.969h3v4.031h4.031v-4.031zM19.359 10.031q1.922 0.141 3.281 1.57t1.359 3.398q0 2.063-1.477 3.539t-3.539 1.477h-12.984q-2.484 0-4.242-1.758t-1.758-4.242q0-2.203 1.57-3.961t3.773-1.992q0.984-1.828 2.766-2.953t3.891-1.125q2.531 0 4.711 1.781t2.648 4.266z"></path>
</symbol>
<symbol id="icon-file_download" viewBox="0 0 24 24">
<path d="M5.016 18h13.969v2.016h-13.969v-2.016zM18.984 9l-6.984 6.984-6.984-6.984h3.984v-6h6v6h3.984z"></path>
</symbol>
<symbol id="icon-file_upload" viewBox="0 0 24 24">
<path d="M5.016 18h13.969v2.016h-13.969v-2.016zM9 15.984v-6h-3.984l6.984-6.984 6.984 6.984h-3.984v6h-6z"></path>
</symbol>
<symbol id="icon-keyboard_arrow_down" viewBox="0 0 24 24">
<path d="M7.406 8.578l4.594 4.594 4.594-4.594 1.406 1.406-6 6-6-6z"></path>
</symbol>
<symbol id="icon-keyboard_arrow_left" viewBox="0 0 24 24">
<path d="M15.422 16.594l-1.406 1.406-6-6 6-6 1.406 1.406-4.594 4.594z"></path>
</symbol>
<symbol id="icon-keyboard_arrow_right" viewBox="0 0 24 24">
<path d="M8.578 16.594l4.594-4.594-4.594-4.594 1.406-1.406 6 6-6 6z"></path>
</symbol>
<symbol id="icon-keyboard_arrow_up" viewBox="0 0 24 24">
<path d="M7.406 15.422l-1.406-1.406 6-6 6 6-1.406 1.406-4.594-4.594z"></path>
</symbol>
<symbol id="icon-speaker" viewBox="0 0 24 24">
<path d="M12 12q1.219 0 2.109 0.891t0.891 2.109-0.891 2.109-2.109 0.891-2.109-0.891-0.891-2.109 0.891-2.109 2.109-0.891zM12 20.016q2.063 0 3.539-1.477t1.477-3.539-1.477-3.539-3.539-1.477-3.539 1.477-1.477 3.539 1.477 3.539 3.539 1.477zM12 3.984q-0.844 0-1.43 0.586t-0.586 1.43 0.586 1.43 1.43 0.586q0.797 0 1.406-0.609t0.609-1.406-0.609-1.406-1.406-0.609zM17.016 2.016q0.797 0 1.383 0.586t0.586 1.383v16.031q0 0.797-0.586 1.383t-1.383 0.586h-10.031q-0.797 0-1.383-0.586t-0.586-1.383v-16.031q0-0.797 0.586-1.383t1.383-0.586h10.031z"></path>
</symbol>
<symbol id="icon-speaker_group" viewBox="0 0 24 24">
<path d="M6 5.016v15.984h9.984v2.016h-9.984q-0.844 0-1.43-0.586t-0.586-1.43v-15.984h2.016zM11.484 12.516q0-1.031 0.75-1.781t1.781-0.75 1.758 0.75 0.727 1.781-0.727 1.758-1.758 0.727-1.781-0.727-0.75-1.758zM14.016 16.5q1.641 0 2.813-1.172t1.172-2.813-1.172-2.836-2.813-1.195-2.836 1.195-1.195 2.836 1.195 2.813 2.836 1.172zM14.016 3q-0.797 0-1.406 0.586t-0.609 1.43 0.586 1.406 1.43 0.563q0.797 0 1.383-0.563t0.586-1.406-0.586-1.43-1.383-0.586zM18.188 0.984q0.75 0 1.289 0.539t0.539 1.289v14.391q0 0.75-0.539 1.266t-1.289 0.516h-8.391q-0.75 0-1.266-0.516t-0.516-1.266v-14.391q0-0.75 0.516-1.289t1.266-0.539h8.391z"></path>
</symbol>
<symbol id="icon-audiotrack" viewBox="0 0 24 24">
<path d="M12 3h6.984v3h-3.984v11.016h-0.047q-0.188 1.688-1.453 2.836t-3 1.148q-1.875 0-3.188-1.313t-1.313-3.188 1.313-3.188 3.188-1.313q0.656 0 1.5 0.281v-9.281z"></path>
</symbol>
<symbol id="icon-collections" viewBox="0 0 24 24">
<path d="M2.016 6h1.969v14.016h14.016v1.969h-14.016q-0.797 0-1.383-0.586t-0.586-1.383v-14.016zM11.016 12l-3 3.984h12l-4.031-4.969-2.953 3.703zM21.984 15.984q0 0.797-0.586 1.406t-1.383 0.609h-12q-0.797 0-1.406-0.609t-0.609-1.406v-12q0-0.797 0.609-1.383t1.406-0.586h12q0.797 0 1.383 0.586t0.586 1.383v12z"></path>
</symbol>
<symbol id="icon-music_note" viewBox="0 0 24 24">
<path d="M12 3h6v3.984h-3.984v10.031q0 1.641-1.195 2.813t-2.836 1.172-2.813-1.172-1.172-2.813 1.172-2.836 2.813-1.195q0.984 0 2.016 0.563v-10.547z"></path>
</symbol>
<symbol id="icon-panorama" viewBox="0 0 24 24">
<path d="M8.484 12.516l-3.469 4.5h13.969l-4.5-6-3.469 4.5zM23.016 18q0 0.797-0.609 1.406t-1.406 0.609h-18q-0.797 0-1.406-0.609t-0.609-1.406v-12q0-0.797 0.609-1.406t1.406-0.609h18q0.797 0 1.406 0.609t0.609 1.406v12z"></path>
</symbol>
<symbol id="icon-rotate_left" viewBox="0 0 24 24">
<path d="M12.984 4.078q2.953 0.375 4.992 2.625t2.039 5.297-2.039 5.297-4.992 2.625v-2.016q2.156-0.375 3.586-2.039t1.43-3.867-1.43-3.867-3.586-2.039v3.891l-4.547-4.453 4.547-4.547v3.094zM7.078 18.328l1.453-1.453q1.078 0.797 2.484 1.031v2.016q-2.25-0.281-3.938-1.594zM6.094 12.984q0.234 1.359 0.984 2.484l-1.406 1.406q-1.313-1.734-1.594-3.891h2.016zM7.125 8.531q-0.844 1.219-1.031 2.484h-2.016q0.281-2.109 1.641-3.891z"></path>
</symbol>
<symbol id="icon-rotate_right" viewBox="0 0 24 24">
<path d="M16.875 15.469q0.797-1.078 1.031-2.484h2.016q-0.281 2.156-1.594 3.891zM12.984 17.906q1.406-0.234 2.484-1.031l1.453 1.453q-1.688 1.313-3.938 1.594v-2.016zM19.922 11.016h-2.016q-0.234-1.406-1.031-2.484l1.453-1.406q1.359 1.688 1.594 3.891zM15.563 5.531l-4.547 4.453v-3.891q-2.156 0.375-3.586 2.039t-1.43 3.867 1.43 3.867 3.586 2.039v2.016q-2.953-0.375-4.992-2.625t-2.039-5.297 2.039-5.297 4.992-2.625v-3.094z"></path>
</symbol>
<symbol id="icon-slideshow" viewBox="0 0 24 24">
<path d="M18.984 18.984v-13.969h-13.969v13.969h13.969zM18.984 3q0.797 0 1.406 0.609t0.609 1.406v13.969q0 0.797-0.609 1.406t-1.406 0.609h-13.969q-0.797 0-1.406-0.609t-0.609-1.406v-13.969q0-0.797 0.609-1.406t1.406-0.609h13.969zM9.984 8.016l5.016 3.984-5.016 3.984v-7.969z"></path>
</symbol>
<symbol id="icon-style" viewBox="0 0 24 24">
<path d="M5.859 19.734v-6.328l3.469 8.344h-1.453q-0.797 0-1.406-0.609t-0.609-1.406zM7.875 8.766q0.422 0 0.703-0.305t0.281-0.727-0.281-0.703-0.703-0.281-0.703 0.281-0.281 0.703 0.281 0.727 0.703 0.305zM22.031 15.938q0.141 0.281 0.141 0.75 0 0.563-0.352 1.125t-0.867 0.75l-7.359 3.047q-0.281 0.141-0.75 0.141-0.563 0-1.102-0.352t-0.773-0.867l-4.969-12q-0.141-0.281-0.141-0.75 0-0.563 0.352-1.078t0.867-0.75l7.406-3.047q0.422-0.141 0.797-0.141 0.516 0 1.031 0.352t0.75 0.867zM2.531 19.641q-0.75-0.328-1.078-1.078t0-1.5l2.438-5.859v9z"></path>
</symbol>
<symbol id="icon-timer" viewBox="0 0 24 24">
<path d="M12 20.016q2.906 0 4.945-2.063t2.039-4.969-2.039-4.945-4.945-2.039-4.945 2.039-2.039 4.945 2.039 4.969 4.945 2.063zM19.031 7.406q0.797 1.031 1.383 2.648t0.586 2.93q0 3.703-2.625 6.352t-6.375 2.648-6.375-2.648-2.625-6.352 2.625-6.352 6.375-2.648q1.266 0 2.93 0.609t2.695 1.406l1.406-1.453q0.75 0.609 1.406 1.406zM11.016 14.016v-6h1.969v6h-1.969zM15 0.984v2.016h-6v-2.016h6z"></path>
</symbol>
<symbol id="icon-timer_off" viewBox="0 0 24 24">
<path d="M12 20.016q1.828 0 3.516-0.984l-9.563-9.563q-0.938 1.594-0.938 3.516 0 2.906 2.039 4.969t4.945 2.063zM3 3.984l17.766 17.766-1.266 1.266-2.531-2.531q-2.344 1.5-4.969 1.5-3.75 0-6.375-2.648t-2.625-6.352q0-1.125 0.445-2.602t1.055-2.367l-2.766-2.766zM11.016 9.422v-1.406h1.969v3.422zM15 0.984v2.016h-6v-2.016h6zM19.031 4.547l1.406 1.406-1.406 1.453q1.969 2.484 1.969 5.578v0.047q0 1.125-0.445 2.578t-1.055 2.344l-1.453-1.453q0.938-1.594 0.938-3.516 0-2.906-2.039-4.945t-4.945-2.039q-1.875 0-3.469 0.938l-1.5-1.453q2.391-1.5 4.969-1.5 1.313 0 2.953 0.586t2.672 1.383z"></path>
</symbol>
<symbol id="icon-photo_size_select_actual" viewBox="0 0 24 24">
<path d="M5.016 17.016h13.969l-4.5-6-3.469 4.5-2.531-3zM21 3q0.75 0 1.383 0.633t0.633 1.383v13.969q0 0.75-0.633 1.383t-1.383 0.633h-18q-0.797 0-1.406-0.609t-0.609-1.406v-13.969q0-0.75 0.633-1.383t1.383-0.633h18z"></path>
</symbol>
<symbol id="icon-music_off" viewBox="0 0 24 24">
<path d="M14.016 6.984v3.188l-2.016-1.969v-5.203h6v3.984h-3.984zM4.266 3l16.734 16.734-1.266 1.266-5.719-5.719v1.734q0 1.641-1.195 2.813t-2.836 1.172-2.813-1.172-1.172-2.813 1.172-2.836 2.813-1.195q0.984 0 2.016 0.563v-0.281l-9-9z"></path>
</symbol>
<symbol id="icon-check" viewBox="0 0 24 24">
<path d="M9 16.172l10.594-10.594 1.406 1.406-12 12-5.578-5.578 1.406-1.406z"></path>
</symbol>
<symbol id="icon-expand_less" viewBox="0 0 24 24">
<path d="M12 8.016l6 6-1.406 1.406-4.594-4.594-4.594 4.594-1.406-1.406z"></path>
</symbol>
<symbol id="icon-expand_more" viewBox="0 0 24 24">
<path d="M16.594 8.578l1.406 1.406-6 6-6-6 1.406-1.406 4.594 4.594z"></path>
</symbol>
<symbol id="icon-menu" viewBox="0 0 24 24">
<path d="M3 6h18v2.016h-18v-2.016zM3 12.984v-1.969h18v1.969h-18zM3 18v-2.016h18v2.016h-18z"></path>
</symbol>
<symbol id="icon-keyboard_control" viewBox="0 0 24 24">
<path d="M12 9.984q0.797 0 1.406 0.609t0.609 1.406-0.609 1.406-1.406 0.609-1.406-0.609-0.609-1.406 0.609-1.406 1.406-0.609zM18 9.984q0.797 0 1.406 0.609t0.609 1.406-0.609 1.406-1.406 0.609-1.406-0.609-0.609-1.406 0.609-1.406 1.406-0.609zM6 9.984q0.797 0 1.406 0.609t0.609 1.406-0.609 1.406-1.406 0.609-1.406-0.609-0.609-1.406 0.609-1.406 1.406-0.609z"></path>
</symbol>
<symbol id="icon-more_vert" viewBox="0 0 24 24">
<path d="M12 15.984q0.797 0 1.406 0.609t0.609 1.406-0.609 1.406-1.406 0.609-1.406-0.609-0.609-1.406 0.609-1.406 1.406-0.609zM12 9.984q0.797 0 1.406 0.609t0.609 1.406-0.609 1.406-1.406 0.609-1.406-0.609-0.609-1.406 0.609-1.406 1.406-0.609zM12 8.016q-0.797 0-1.406-0.609t-0.609-1.406 0.609-1.406 1.406-0.609 1.406 0.609 0.609 1.406-0.609 1.406-1.406 0.609z"></path>
</symbol>
<symbol id="icon-refresh" viewBox="0 0 24 24">
<path d="M17.672 6.328l2.344-2.344v7.031h-7.031l3.234-3.234q-1.781-1.781-4.219-1.781-2.484 0-4.242 1.758t-1.758 4.242 1.758 4.242 4.242 1.758q1.734 0 3.398-1.172t2.273-2.813h2.063q-0.656 2.625-2.813 4.313t-4.922 1.688q-3.281 0-5.625-2.344t-2.344-5.672 2.344-5.672 5.625-2.344q1.406 0 3.070 0.68t2.602 1.664z"></path>
</symbol>
<symbol id="icon-unfold_less" viewBox="0 0 24 24">
<path d="M16.594 5.391l-4.594 4.594-4.594-4.594 1.406-1.406 3.188 3.188 3.188-3.188zM7.406 18.609l4.594-4.594 4.594 4.594-1.406 1.406-3.188-3.188-3.188 3.188z"></path>
</symbol>
<symbol id="icon-unfold_more" viewBox="0 0 24 24">
<path d="M12 18.188l3.188-3.188 1.406 1.406-4.594 4.594-4.594-4.594 1.406-1.406zM12 5.813l-3.188 3.188-1.406-1.406 4.594-4.594 4.594 4.594-1.406 1.406z"></path>
</symbol>
<symbol id="icon-sync_disabled" viewBox="0 0 24 24">
<path d="M20.016 3.984l-2.391 2.391q0.984 0.938 1.688 2.602t0.703 3.023q0 2.203-1.219 4.219l-1.5-1.453q0.703-1.406 0.703-2.766 0-1.031-0.516-2.25t-1.266-1.969l-2.203 2.203v-6h6zM2.859 5.391l1.266-1.266 15.703 15.75-1.266 1.266-2.344-2.344q-1.125 0.656-2.25 0.938v-2.063q0.375-0.141 0.797-0.375l-8.063-8.063q-0.703 1.406-0.703 2.766 0 1.031 0.516 2.25t1.266 1.969l2.203-2.203v6h-6l2.391-2.391q-0.984-0.938-1.688-2.602t-0.703-3.023q0-2.203 1.219-4.219zM9.984 6.328q-0.281 0.094-0.75 0.375l-1.453-1.5q1.172-0.703 2.203-0.938v2.063z"></path>
</symbol>
<symbol id="icon-sync_problem" viewBox="0 0 24 24">
<path d="M11.016 12.984v-6h1.969v6h-1.969zM21 3.984l-2.344 2.391q2.344 2.344 2.344 5.625 0 2.766-1.688 4.922t-4.313 2.813v-2.063q1.641-0.609 2.813-2.273t1.172-3.398q0-1.031-0.492-2.25t-1.242-1.969l-2.25 2.203v-6h6zM11.016 17.016v-2.016h1.969v2.016h-1.969zM3 12q0-2.766 1.688-4.922t4.313-2.813v2.063q-1.641 0.609-2.813 2.273t-1.172 3.398q0 1.031 0.492 2.25t1.242 1.969l2.25-2.203v6h-6l2.344-2.391q-2.344-2.344-2.344-5.625z"></path>
</symbol>
<symbol id="icon-star1" viewBox="0 0 24 24">
<path d="M12 17.25l-6.188 3.75 1.641-7.031-5.438-4.734 7.172-0.609 2.813-6.609 2.813 6.609 7.172 0.609-5.438 4.734 1.641 7.031z"></path>
</symbol>
<symbol id="icon-star_half" viewBox="0 0 24 24">
<path d="M12 15.422l3.75 2.25-0.984-4.266 3.328-2.906-4.406-0.375-1.688-4.031v9.328zM21.984 9.234l-5.438 4.734 1.641 7.031-6.188-3.75-6.188 3.75 1.641-7.031-5.438-4.734 7.172-0.609 2.813-6.609 2.813 6.609z"></path>
</symbol>
<symbol id="icon-star_outline" viewBox="0 0 24 24">
<path d="M12 15.422l3.75 2.25-0.984-4.266 3.328-2.906-4.406-0.375-1.688-4.031-1.688 4.031-4.406 0.375 3.328 2.906-0.984 4.266zM21.984 9.234l-5.438 4.734 1.641 7.031-6.188-3.75-6.188 3.75 1.641-7.031-5.438-4.734 7.172-0.609 2.813-6.609 2.813 6.609z"></path>
</symbol>
<symbol id="icon-book" viewBox="0 0 24 24">
<path d="M6 3.984v8.016l2.484-1.5 2.531 1.5v-8.016h-5.016zM18 2.016q0.797 0 1.406 0.586t0.609 1.383v16.031q0 0.797-0.609 1.383t-1.406 0.586h-12q-0.797 0-1.406-0.586t-0.609-1.383v-16.031q0-0.797 0.609-1.383t1.406-0.586h12z"></path>
</symbol>
<symbol id="icon-bookmark" viewBox="0 0 24 24">
<path d="M17.016 3q0.797 0 1.383 0.609t0.586 1.406v15.984l-6.984-3-6.984 3v-15.984q0-0.797 0.586-1.406t1.383-0.609h10.031z"></path>
</symbol>
<symbol id="icon-bookmark_outline" viewBox="0 0 24 24">
<path d="M17.016 18v-12.984h-10.031v12.984l5.016-2.203zM17.016 3q0.797 0 1.383 0.609t0.586 1.406v15.984l-6.984-3-6.984 3v-15.984q0-0.797 0.586-1.406t1.383-0.609h10.031z"></path>
</symbol>
<symbol id="icon-cached" viewBox="0 0 24 24">
<path d="M6 12h3l-3.984 3.984-4.031-3.984h3q0-3.281 2.367-5.648t5.648-2.367q2.344 0 4.266 1.266l-1.453 1.453q-1.266-0.703-2.813-0.703-2.484 0-4.242 1.758t-1.758 4.242zM18.984 8.016l4.031 3.984h-3q0 3.281-2.367 5.648t-5.648 2.367q-2.344 0-4.266-1.266l1.453-1.453q1.313 0.703 2.813 0.703 2.484 0 4.242-1.758t1.758-4.242h-3z"></path>
</symbol>
<symbol id="icon-description" viewBox="0 0 24 24">
<path d="M12.984 9h5.531l-5.531-5.484v5.484zM15.984 14.016v-2.016h-7.969v2.016h7.969zM15.984 18v-2.016h-7.969v2.016h7.969zM14.016 2.016l6 6v12q0 0.797-0.609 1.383t-1.406 0.586h-12q-0.797 0-1.406-0.586t-0.609-1.383l0.047-16.031q0-0.797 0.586-1.383t1.383-0.586h8.016z"></path>
</symbol>
<symbol id="icon-done" viewBox="0 0 24 24">
<path d="M9 16.219l10.594-10.641 1.406 1.406-12 12-5.578-5.578 1.359-1.406z"></path>
</symbol>
<symbol id="icon-done_all" viewBox="0 0 24 24">
<path d="M0.422 13.406l1.406-1.406 5.578 5.578-1.406 1.406zM22.219 5.578l1.453 1.406-12 12-5.625-5.578 1.453-1.406 4.172 4.172zM18 6.984l-6.328 6.375-1.406-1.406 6.328-6.375z"></path>
</symbol>
<symbol id="icon-favorite" viewBox="0 0 24 24">
<path d="M12 21.328l-1.453-1.313q-2.484-2.25-3.609-3.328t-2.508-2.672-1.898-2.883-0.516-2.648q0-2.297 1.57-3.891t3.914-1.594q2.719 0 4.5 2.109 1.781-2.109 4.5-2.109 2.344 0 3.914 1.594t1.57 3.891q0 1.828-1.219 3.797t-2.648 3.422-4.664 4.359z"></path>
</symbol>
<symbol id="icon-favorite_outline" viewBox="0 0 24 24">
<path d="M12.094 18.563q2.25-2.016 3.328-3.047t2.344-2.438 1.758-2.484 0.492-2.109q0-1.5-1.008-2.484t-2.508-0.984q-1.172 0-2.18 0.656t-1.383 1.688h-1.875q-0.375-1.031-1.383-1.688t-2.18-0.656q-1.5 0-2.508 0.984t-1.008 2.484q0 1.031 0.492 2.109t1.758 2.484 2.344 2.438 3.328 3.047l0.094 0.094zM16.5 3q2.344 0 3.914 1.594t1.57 3.891q0 1.359-0.516 2.648t-1.898 2.883-2.508 2.672-3.609 3.328l-1.453 1.313-1.453-1.266q-3.234-2.906-4.664-4.359t-2.648-3.422-1.219-3.797q0-2.297 1.57-3.891t3.914-1.594q2.719 0 4.5 2.109 1.781-2.109 4.5-2.109z"></path>
</symbol>
<symbol id="icon-search" viewBox="0 0 24 24">
<path d="M9.516 14.016q1.875 0 3.188-1.313t1.313-3.188-1.313-3.188-3.188-1.313-3.188 1.313-1.313 3.188 1.313 3.188 3.188 1.313zM15.516 14.016l4.969 4.969-1.5 1.5-4.969-4.969v-0.797l-0.281-0.281q-1.781 1.547-4.219 1.547-2.719 0-4.617-1.875t-1.898-4.594 1.898-4.617 4.617-1.898 4.594 1.898 1.875 4.617q0 0.984-0.469 2.227t-1.078 1.992l0.281 0.281h0.797z"></path>
</symbol>
<symbol id="icon-youtube_searched_for" viewBox="0 0 24 24">
<path d="M17.016 14.016l4.969 4.969-1.453 1.5-5.016-5.016v-0.75l-0.281-0.281q-0.75 0.609-1.992 1.078t-2.227 0.469q-1.875 0-3.328-0.891l1.5-1.453q0.938 0.375 1.828 0.375 1.875 0 3.188-1.313t1.313-3.188-1.313-3.188-3.188-1.313-3.188 1.313-1.313 3.188h3.469l-4.125 3.984-3.844-3.984h2.484q0-2.672 1.922-4.594t4.594-1.922q2.719 0 4.617 1.898t1.898 4.617q0 0.984-0.469 2.227t-1.125 1.992l0.281 0.281h0.797z"></path>
</symbol>
<symbol id="icon-fingerprint" viewBox="0 0 24 24">
<path d="M14.906 21.984h-0.141q-2.156-0.563-3.703-2.109-0.891-0.891-1.523-2.414t-0.633-2.789q0-1.219 0.891-2.086t2.156-0.867 2.18 0.867 0.914 2.086q0 0.797 0.586 1.359t1.477 0.563 1.5-0.563 0.609-1.359q0-2.813-2.133-4.828t-5.133-2.016q-2.156 0-3.938 1.102t-2.672 2.93q-0.563 1.172-0.563 2.813 0 1.875 0.656 3.609 0.141 0.469-0.328 0.609t-0.609-0.281q-0.75-1.922-0.75-3.938 0-1.828 0.703-3.234 0.984-2.109 3.023-3.375t4.477-1.266q3.422 0 5.836 2.32t2.414 5.555q0 1.219-0.914 2.063t-2.18 0.844-2.156-0.844-0.891-2.063q0-0.797-0.609-1.383t-1.5-0.586-1.477 0.586-0.586 1.383q0 2.625 1.875 4.5 1.313 1.313 3.281 1.828 0.422 0.047 0.328 0.609-0.094 0.375-0.469 0.375zM12.422 14.672q0 1.734 1.289 3t3.211 1.266q0.094 0 0.422-0.047t0.539-0.047 0.422 0.070 0.258 0.305q0.094 0.516-0.422 0.609-0.563 0.094-1.219 0.094-1.875 0-3.094-0.891-2.391-1.641-2.391-4.359 0-0.516 0.516-0.516 0.469 0 0.469 0.516zM9.75 21.797q-0.188 0-0.328-0.141-1.266-1.266-2.016-2.672-1.078-1.875-1.078-4.313 0-2.203 1.664-3.797t4.008-1.594 4.008 1.594 1.664 3.797q0 0.469-0.516 0.469t-0.516-0.469q0-1.828-1.359-3.117t-3.281-1.289-3.281 1.289-1.359 3.117q0 2.25 0.891 3.844 0.609 1.078 1.875 2.438 0.375 0.328 0 0.703-0.141 0.141-0.375 0.141zM3.516 9.703q-0.516 0-0.516-0.469 0-0.094 0.094-0.281 1.5-2.156 3.75-3.281 2.344-1.219 5.156-1.219t5.156 1.219q2.297 1.125 3.75 3.234 0.094 0.188 0.094 0.281 0 0.328-0.375 0.469t-0.563-0.188q-1.406-1.922-3.375-2.906-2.156-1.078-4.688-1.102t-4.688 1.102q-2.109 1.078-3.422 2.953-0.141 0.188-0.375 0.188zM17.813 4.453q-0.188 0-0.234-0.047-2.766-1.406-5.578-1.406-3.047 0-5.578 1.406-0.234 0.141-0.469 0t-0.234-0.422q0-0.328 0.234-0.469 2.719-1.5 6.047-1.5 3.047 0 6.047 1.5 0.422 0.234 0.188 0.656-0.188 0.281-0.422 0.281z"></path>
</symbol>
<symbol id="icon-bookmarks" viewBox="0 0 24 24">
<path d="M15 5.016q0.797 0 1.406 0.586t0.609 1.383v16.031l-7.031-3-6.984 3v-16.031q0-0.797 0.609-1.383t1.406-0.586h9.984zM18.984 18v-12.984q0-0.797-0.586-1.406t-1.383-0.609h-10.031q0-0.797 0.609-1.406t1.406-0.609h9.984q0.797 0 1.406 0.609t0.609 1.406v15.984z"></path>
</symbol>
<symbol id="icon-file_download_done" viewBox="0 0 24 24">
<path d="M9.609 15.281l-4.594-4.594 1.969-1.875 2.625 2.578 7.406-7.406 1.969 2.016zM5.016 18h13.969v2.016h-13.969v-2.016z"></path>
</symbol>
<symbol id="icon-shuffle_on" viewBox="0 0 24 24">
<path d="M14.813 13.406l-1.406 1.406 3.141 3.141-2.063 2.063h5.531v-5.531l-2.063 2.063zM14.484 3.984l2.063 2.063-12.563 12.563 1.406 1.406 12.563-12.563 2.063 2.063v-5.531h-5.531zM10.594 9.188l-5.203-5.203-1.406 1.406 5.203 5.203zM21 0.984q0.797 0 1.406 0.609t0.609 1.406v18q0 0.797-0.609 1.406t-1.406 0.609h-18q-0.797 0-1.406-0.609t-0.609-1.406v-18q0-0.797 0.609-1.406t1.406-0.609h18z"></path>
</symbol>
<symbol id="icon-star_outline1" viewBox="0 0 24 24">
<path d="M21.984 9.234l-7.172-0.609-2.813-6.609-2.813 6.609-7.172 0.609 5.438 4.734-1.641 7.031 6.188-3.75 6.188 3.75-1.641-7.031zM12 15.422l-3.75 2.25 0.984-4.266-3.328-2.906 4.406-0.375 1.688-4.031 1.688 4.031 4.406 0.375-3.328 2.906 0.984 4.266z"></path>
</symbol>
<symbol id="icon-star_rate" viewBox="0 0 24 24">
<path d="M14.438 9.984l-2.438-7.969-2.438 7.969h-7.547l6.188 4.406-2.391 7.594 6.188-4.688 6.188 4.688-2.344-7.594 6.141-4.406h-7.547z"></path>
</symbol>
<symbol id="icon-stop_circle" viewBox="0 0 24 24">
<path d="M8.016 15.984h7.969v-7.969h-7.969v7.969zM12 2.016q-2.063 0-3.867 0.773t-3.188 2.156-2.156 3.188-0.773 3.867 0.773 3.867 2.156 3.188 3.188 2.156 3.867 0.773 3.867-0.773 3.188-2.156 2.156-3.188 0.773-3.867-0.773-3.867-2.156-3.188-3.188-2.156-3.867-0.773v0z"></path>
</symbol>
<symbol id="icon-play1" viewBox="0 0 22 28">
<path d="M21.625 14.484l-20.75 11.531c-0.484 0.266-0.875 0.031-0.875-0.516v-23c0-0.547 0.391-0.781 0.875-0.516l20.75 11.531c0.484 0.266 0.484 0.703 0 0.969z"></path>
</symbol>
<symbol id="icon-pause2" viewBox="0 0 24 28">
<path d="M24 3v22c0 0.547-0.453 1-1 1h-8c-0.547 0-1-0.453-1-1v-22c0-0.547 0.453-1 1-1h8c0.547 0 1 0.453 1 1zM10 3v22c0 0.547-0.453 1-1 1h-8c-0.547 0-1-0.453-1-1v-22c0-0.547 0.453-1 1-1h8c0.547 0 1 0.453 1 1z"></path>
</symbol>
<symbol id="icon-airplayaudio" viewBox="0 0 32 32">
<path d="M15.878 0.245c-3.837 0.030-7.675 1.432-10.727 4.229-6.509 5.966-6.888 16.108-0.922 22.617 0.271 0.325 0.596 0.596 0.922 0.922 0.163 0.108 0.381 0.111 0.544-0.052l0.706-0.815c0.163-0.163 0.163-0.434 0-0.596-5.695-5.261-6.076-14.211-0.76-19.906s14.211-6.073 19.906-0.758c5.695 5.316 6.073 14.208 0.758 19.904-0.271 0.271-0.487 0.543-0.758 0.76-0.163 0.163-0.163 0.434 0 0.596l0.706 0.815c0.163 0.163 0.434 0.161 0.596 0.052 6.509-6.021 6.888-16.108 0.922-22.617-3.199-3.458-7.545-5.185-11.893-5.151zM16.393 4.935c-2.929-0.095-5.898 0.923-8.203 3.065-4.611 4.285-4.881 11.499-0.596 16.109 0.163 0.163 0.325 0.379 0.542 0.542 0.163 0.163 0.434 0.163 0.596 0l0.706-0.813c0.163-0.163 0.163-0.434 0-0.596-1.898-1.79-3.036-4.34-3.036-6.997 0-5.261 4.283-9.547 9.544-9.547s9.547 4.338 9.547 9.599c0 2.603-1.086 5.155-2.984 6.945-0.163 0.163-0.163 0.434 0 0.596l0.706 0.813c0.163 0.163 0.434 0.217 0.596 0.055 4.611-4.339 4.829-11.554 0.544-16.164-2.143-2.305-5.032-3.512-7.961-3.607zM16.039 9.357c-1.763-0.027-3.539 0.622-4.922 1.951-2.766 2.658-2.819 6.997-0.161 9.763l0.161 0.164c0.163 0.163 0.434 0.163 0.597 0l0.706-0.815c0.163-0.163 0.163-0.434 0-0.596-0.922-0.922-1.464-2.222-1.464-3.578 0-0.004-0-0.009-0-0.014 0-2.748 2.228-4.976 4.976-4.976 0.005 0 0.010 0 0.014 0h-0.001c0.004 0 0.009-0 0.014-0 2.748 0 4.976 2.228 4.976 4.976 0 0.005 0 0.010-0 0.014v-0.001c0 1.356-0.542 2.602-1.518 3.578-0.163 0.163-0.163 0.434 0 0.596l0.706 0.815c0.163 0.163 0.434 0.163 0.596 0 2.712-2.658 2.822-6.997 0.164-9.763-1.329-1.383-3.081-2.087-4.844-2.115zM16.047 19.682c-0.183-0.007-0.374 0.060-0.537 0.195l-0.052 0.055-9.547 10.74c-0.217 0.271-0.217 0.651 0.055 0.922 0.109 0.109 0.269 0.164 0.378 0.164h19.148c0.325 0 0.651-0.271 0.651-0.651 0-0.163-0.053-0.326-0.161-0.435l-9.44-10.74c-0.136-0.163-0.312-0.243-0.495-0.25z"></path>
</symbol>
</defs>
</svg>
